# xmcd
#
# Track frame offsets:
#	150
#	17230
#	33027
#	51136
#	66446
#	81848
#	96471
#	111016
#	129357
#	143871
#	163493
#	183485
#
# Disc length: 2620 seconds
#
# Revision: 0
# Processed by: cddbd v1.5.2PL0 Copyright (c) Steve Scherf et al.
# Submitted via: dBpowerAMP V4.0
#
DISCID=a80a3a0c
DTITLE=Malcolm Holcombe - To Drink the Rain
DYEAR=2011
DGENRE=Alt. Country
TTITLE0=One Leg at a Time
TTITLE1=Mountains of Home
TTITLE2=Behind the Number One
TTITLE3=Down in the Woods
TTITLE4=Becky's Blessed (Backporch Flowers)
TTITLE5=Those Who Wander
TTITLE6=Where I Don't Belong
TTITLE7=The Mighty City
TTITLE8=Reckon to the Wind
TTITLE9=To Drink the Rain
TTITLE10=Comes the Blues
TTITLE11=One Man Singin'
EXTD=
EXTT0=
EXTT1=
EXTT2=
EXTT3=
EXTT4=
EXTT5=
EXTT6=
EXTT7=
EXTT8=
EXTT9=
EXTT10=
EXTT11=
PLAYORDER=
